<svg width="391" height="381" viewBox="0 0 391 381" fill="none" xmlns="http://www.w3.org/2000/svg">
<path fill-rule="evenodd" clip-rule="evenodd" d="M203 380.31C197.78 380.57 188.32 380.41 182 379.96C175.68 379.5 165.32 378.01 159 376.63C152.68 375.25 143.37 372.77 138.33 371.12C133.29 369.46 124.29 365.92 118.33 363.25C112.37 360.58 103.35 355.81 98.28 352.65C93.21 349.5 85.56 344.29 81.28 341.08C77 337.87 70.09 332.15 65.91 328.37C61.74 324.59 55.86 318.8 52.85 315.5C49.84 312.2 44.85 306.3 41.76 302.39C38.67 298.48 33.22 290.83 29.66 285.39C26.1 279.95 20.68 270.52 17.63 264.44C14.57 258.35 10.5 248.67 8.58999 242.94C6.67999 237.2 4.09999 227.77 2.86999 222C0.949991 213.02 0.619992 208.4 0.589992 190C0.559992 173.34 0.949991 166.47 2.31999 159.5C3.29999 154.55 5.04999 146.9 6.20999 142.5C7.36999 138.1 9.85999 130.46 11.76 125.53C13.65 120.6 16.93 113.12 19.04 108.93C21.15 104.73 26.01 96.61 29.84 90.88C33.67 85.16 40.14 76.65 44.23 71.99C48.32 67.32 55.27 60.11 59.68 55.97C64.09 51.82 71.64 45.47 76.44 41.85C81.25 38.23 88.63 33.23 92.84 30.73C97.05 28.23 104.42 24.18 109.21 21.72C114 19.26 122.33 15.63 127.71 13.66C133.09 11.68 142.68 8.70001 149 7.04001C155.32 5.38001 165.22 3.30001 171 2.41001C177.42 1.43001 188.1 0.800006 198.5 0.780006C211.59 0.750006 218.47 1.25 228.4 2.95C235.5 4.17 245.63 6.42 250.9 7.95C256.18 9.48 264.77 12.39 270 14.42C275.23 16.44 283.32 20.16 288 22.68C292.68 25.2 301 30.32 306.5 34.06C312 37.81 321.23 45.12 327 50.32C332.77 55.52 340.04 62.67 343.15 66.2C346.25 69.73 352.02 77.08 355.97 82.53C359.92 87.98 364.74 95.28 366.68 98.76C368.62 102.23 372.4 110.02 375.07 116.07C377.75 122.11 381.26 131.43 382.89 136.78C384.51 142.13 386.56 150.07 387.43 154.43C388.31 158.79 389.51 167.79 390.09 174.43C390.67 181.07 390.86 190.55 390.51 195.5C390.16 200.45 389.2 208.77 388.37 214C387.55 219.23 385.74 227.75 384.35 232.94C382.97 238.12 380.03 246.9 377.83 252.44C375.63 257.97 371.56 266.92 368.79 272.31C366.02 277.71 361.64 285.36 359.05 289.31C356.47 293.27 350.73 301.01 346.29 306.53C341.84 312.05 333.96 320.62 328.77 325.59C323.58 330.55 315.1 337.76 309.92 341.62C304.74 345.47 297.56 350.46 293.96 352.7C290.36 354.94 283.72 358.62 279.21 360.89C274.71 363.16 267.55 366.39 263.31 368.08C259.07 369.76 250.61 372.42 244.52 374C238.42 375.57 228.72 377.53 222.97 378.35C217.21 379.17 208.23 380.05 203 380.31ZM187.5 352.64C190.5 352.5 190.5 352.5 191 341.9C191.3 335.56 192.01 330.69 192.76 329.79C193.45 328.96 196.34 328 199.19 327.66C202.37 327.29 204.87 327.47 205.68 328.15C206.63 328.94 207 332.41 207 340.62C207 351.56 207.08 352 209.13 352C210.3 352 216.42 350.84 222.74 349.43C229.05 348.01 237.65 345.72 241.86 344.33C246.06 342.94 254.9 339.19 261.5 335.98C268.1 332.77 277.74 327.38 282.91 324.01C288.09 320.63 295.52 315.25 299.43 312.06C303.33 308.87 310.35 302.23 315.01 297.32C319.68 292.4 326.54 284.13 330.26 278.94C333.98 273.75 339.92 263.65 343.46 256.5C347 249.35 351.26 238.88 352.92 233.22C354.58 227.57 356.68 217.9 357.59 211.72C358.83 203.26 359.11 196.45 358.7 184C358.33 172.66 357.5 164.37 356.02 157.5C354.84 152 352.71 144.13 351.29 140.02C349.88 135.9 346.74 128.26 344.31 123.04C341.89 117.82 337.05 109.27 333.56 104.03C330.06 98.79 323.82 90.68 319.69 86C315.55 81.32 308.28 74.12 303.53 70C298.78 65.88 290.39 59.49 284.89 55.8C279.39 52.12 269.54 46.38 263.01 43.04C255.8 39.37 247.46 36.02 241.81 34.53C236.69 33.18 228.74 31.62 224.14 31.05C219.47 30.48 215.1 30.4 214.26 30.88C213.13 31.51 213.05 31.91 213.95 32.47C214.62 32.88 220.53 34.03 227.09 35.01C238.17 36.68 239.57 37.15 246.64 41.55C251.43 44.54 255.4 47.93 257.36 50.71C259.07 53.13 262.84 56.69 265.73 58.61C270.35 61.68 271 62.52 271 65.47C271 68.54 270.63 68.96 266.75 70.25C263.07 71.47 262.43 72.11 262 75.02C261.59 77.8 260.94 78.52 258.27 79.21C256.5 79.67 254.64 80.82 254.15 81.77C253.66 82.72 252.93 85.74 252.53 88.49C252.13 91.23 251.11 94.83 250.26 96.49C249.41 98.14 247.91 100.54 246.91 101.82C245.5 103.62 245.24 105.2 245.69 109.03C246.12 112.67 245.84 114.59 244.61 116.47C243.04 118.86 243.05 119 244.8 119C245.82 119 249.99 120.15 254.07 121.55C258.87 123.19 262.61 123.89 264.62 123.53C266.33 123.21 268.43 123.23 269.27 123.55C270.12 123.88 271.37 125.48 272.04 127.1C272.72 128.73 272.99 130.35 272.64 130.69C272.3 131.03 269.01 131.22 265.33 131.1C260 130.93 258.09 130.41 255.9 128.57C254.38 127.29 251.44 125.93 249.36 125.54C247.27 125.15 244.32 124.18 242.78 123.39C241.25 122.6 240 121.29 240 120.47C240 119.66 240.44 119 240.99 119C241.53 119 240.99 116.97 239.79 114.5C237.79 110.39 237.29 110 233.95 110C231.94 110 228.87 110.5 227.13 111.11C225.38 111.71 223.52 113.03 222.98 114.04C222.44 115.05 222 118.77 222 122.31C222 126.96 222.44 129.12 223.58 130.07C224.88 131.14 225.73 131.15 228.33 130.09C230.07 129.38 232.53 128.56 233.79 128.28C235.18 127.96 236.83 128.44 238.04 129.53C239.12 130.51 240 132.3 240 133.51C240 134.71 239.5 137.13 238.9 138.87C238 141.45 238.1 142.5 239.45 144.56C240.36 145.95 242.15 147.57 243.42 148.15C245.37 149.03 246.41 148.71 249.93 146.17C252.23 144.5 255.41 142.85 256.98 142.5C258.56 142.16 263.27 142.35 267.44 142.93C272.27 143.6 277.28 145.12 281.22 147.11C284.64 148.84 289.17 151.34 291.3 152.69C293.91 154.33 295.84 156.66 297.21 159.82C298.32 162.39 300.19 165.54 301.35 166.81C302.51 168.08 307.07 170.82 311.48 172.89C315.89 174.97 320.95 177.9 322.73 179.41C324.62 181.01 326.4 183.77 327.01 186.04C327.82 189.03 327.7 191.49 326.5 196.66C325.64 200.36 323.9 204.77 322.62 206.45C321.35 208.13 319.74 210.58 319.04 211.89C318.35 213.21 317.38 217.45 316.89 221.32C316.41 225.18 315.03 230.36 313.84 232.83C312.59 235.41 307.1 241.92 300.96 248.09C292.69 256.4 290.1 259.65 289.59 262.36C289.18 264.57 287.75 266.84 285.72 268.52C283.95 269.98 280.41 272.45 277.84 274.01C273.72 276.51 273 277.5 271.51 282.67C270.58 285.88 268.94 289.94 267.87 291.69C265.91 294.88 265.91 294.88 268.02 296.01C269.37 296.74 270.01 297.91 269.81 299.32C269.58 300.94 268.71 301.58 266.39 301.8C264.21 302.02 262.38 301.35 260.26 299.57C258.38 297.98 256.83 295.39 256.15 292.67C255.4 289.72 255.35 285.77 255.97 280.41C256.47 276.06 257.6 268.45 258.49 263.5C259.37 258.55 260.36 249.05 260.69 242.4C261.02 235.74 261.02 229.2 260.68 227.88C260.35 226.55 258.8 224.12 257.23 222.48C255.66 220.84 253.22 217.93 251.79 216C250.37 214.07 247.37 207.99 245.13 202.49C242.88 196.98 240.76 191.07 240.42 189.36C239.98 187.16 240.83 183.19 243.31 175.86C245.24 170.15 247.12 163.87 247.49 161.89C248.13 158.52 247.97 158.24 244.83 157.07C243 156.39 240.05 155.21 238.28 154.45C236.51 153.69 233.94 151.29 232.58 149.12C230.66 146.09 228.82 144.7 224.61 143.13C221.6 142 216.07 139.05 212.32 136.56C208.57 134.08 203.93 130.99 202 129.71C200.07 128.42 197.75 125.82 196.84 123.93C195.92 122.05 193.76 117.46 192.02 113.75C190.29 110.04 188.44 107 187.92 107C187.38 107 187.25 108.2 187.63 109.75C187.99 111.26 188.68 113.54 189.15 114.82C189.62 116.09 190 117.33 190 117.57C190 117.8 189.41 118 188.69 118C187.96 118 186.23 116.76 184.84 115.25C183.45 113.74 180.65 109.47 178.62 105.77C176.59 102.07 174.25 97.12 173.42 94.77C172.59 92.42 171.46 85.78 170.91 80.01C170.36 74.24 169.51 69.11 169.03 68.63C168.51 68.11 167.53 69.2 166.67 71.25C165.86 73.18 164.64 75.1 163.95 75.53C163.2 75.99 162.2 75.62 161.46 74.61C160.78 73.68 159.69 69.29 159.04 64.85C158.39 60.41 157.37 55.71 156.77 54.39C156.05 52.81 154.29 51.62 151.6 50.89C148.18 49.97 147 50.08 144.19 51.6C141.78 52.9 140.41 53.12 139.25 52.38C138.37 51.83 137.15 49.61 136.54 47.44C135.94 45.28 134.78 43.4 133.97 43.26C133.16 43.12 132.04 43.34 131.49 43.75C130.93 44.16 126.91 50.12 122.55 57C118.19 63.88 111.34 75.35 107.31 82.5C103.29 89.65 100 95.84 100 96.25C100 96.66 115.29 97 133.98 97C167.95 97 167.95 97 169.52 99.4C170.41 100.75 171.18 104.34 171.3 107.65C171.5 113.5 171.5 113.5 143.5 114.11C128.1 114.45 110.45 114.79 104.28 114.86C93.05 115 93.05 115 91.5 118.01C90.64 119.66 88.43 126.52 86.59 133.26C84.75 139.99 82.92 147.86 82.53 150.75C81.81 156 81.81 156 111.16 156.04C127.3 156.06 154.45 156.31 171.5 156.59C188.55 156.87 203.08 157.3 203.79 157.54C204.73 157.85 205.01 159.97 204.79 165.24C204.5 172.5 204.5 172.5 143.59 172.76C99.88 172.94 82.3 173.34 81.32 174.15C80.25 175.03 80.01 178.25 80.22 188.4C80.5 201.5 80.5 201.5 143 202.02C177.38 202.3 205.63 202.64 205.79 202.77C205.96 202.9 205.96 206.26 205.79 210.25C205.5 217.5 205.5 217.5 144.33 218C110.69 218.27 82.84 218.83 82.43 219.23C82.03 219.63 82.5 223.68 83.49 228.21C84.47 232.75 86.22 239.4 87.38 242.98C89.5 249.5 89.5 249.5 147.5 250C205.5 250.5 205.5 250.5 205.79 256.63C206.02 261.24 205.69 263.17 204.47 264.38C203.03 265.83 197.29 266 149.43 266C98.27 266 96 266.08 96 267.83C96 268.84 98.28 274.13 101.07 279.58C103.86 285.04 106.89 290.23 107.82 291.13C109.33 292.6 116.3 292.83 174.88 293.4C210.84 293.76 240.65 294.28 241.13 294.58C241.61 294.88 242 297.74 242 300.94C242 304.98 241.53 307.15 240.45 308.05C239.23 309.06 225.97 309.44 179.45 309.8C146.75 310.06 120 310.64 120 311.08C120 311.53 122.25 314.87 125 318.5C127.75 322.13 130 325.7 130 326.43C130 327.16 129.39 328.26 128.64 328.88C127.87 329.53 125.84 329.75 123.89 329.41C122.03 329.09 117.78 327.95 114.47 326.9C109.4 325.29 107.24 323.78 100.99 317.49C94.75 311.21 93.02 310 90.28 310C88.47 310 87 310.42 87 310.93C87 311.45 88.91 313.4 91.25 315.27C93.59 317.14 100 321.58 105.5 325.14C111 328.71 118.43 333.24 122 335.21C125.57 337.19 133 340.47 138.5 342.51C144 344.55 153.32 347.31 159.2 348.63C165.09 349.96 173.19 351.44 177.2 351.91C181.22 352.39 185.85 352.72 187.5 352.64ZM75.76 293C83.28 293 84.08 292.82 83.57 291.25C83.26 290.29 80.42 284.55 77.25 278.5C71.5 267.5 71.5 267.5 61.09 267.21C55.36 267.06 50.28 267.32 49.79 267.81C49.27 268.33 50.73 271.42 53.25 275.19C55.65 278.76 59.81 284.22 62.49 287.34C67.38 293 67.38 293 75.76 293ZM52.46 251C58.74 251 64.14 250.58 64.45 250.07C64.77 249.56 64.27 246.98 63.35 244.32C62.43 241.67 60.49 235 59.05 229.5C56.42 219.5 56.42 219.5 43.21 219.22C30.72 218.96 30 219.05 30 220.88C30 221.94 31.75 228.03 33.89 234.41C36.02 240.78 38.51 247.13 39.41 248.5C41 250.92 41.39 251 52.46 251ZM40.44 201.78C53.5 201.5 53.5 201.5 53.78 187.75C54.06 174 54.06 174 40.64 174C29.32 174 27.12 174.25 26.61 175.58C26.27 176.45 26 182.45 26 188.92C26 195.38 26.31 200.98 26.69 201.36C27.08 201.74 33.26 201.93 40.44 201.78ZM43.44 156C50.56 156 56.14 155.58 56.49 155.01C56.83 154.47 58.41 148.73 60 142.26C61.59 135.79 63.82 127.84 64.95 124.59C66.08 121.34 67 117.84 67 116.81C67 115.07 66.2 114.95 56.25 115.22C45.5 115.5 45.5 115.5 41.3 123.5C39 127.9 35.73 135.72 34.05 140.87C32.37 146.02 31 151.54 31 153.12C31 156 31 156 43.44 156ZM68.43 97C76.49 97 76.95 96.88 78.8 94.25C79.87 92.74 81.88 89.25 83.27 86.5C84.66 83.75 88.65 77.22 92.15 72C95.64 66.78 98.9 61.87 99.39 61.09C100.07 60.02 99.87 59.84 98.56 60.34C97.62 60.7 94.29 62.68 91.17 64.74C88.05 66.8 81.5 72.31 76.6 76.99C71.71 81.67 65.97 87.68 63.85 90.34C61.73 93 60 95.59 60 96.09C60 96.59 63.79 97 68.43 97ZM248.43 64.69C249.02 64.49 249.34 62.79 249.15 60.92C248.96 59.04 248.33 56.6 247.75 55.5C247.17 54.4 246.21 53.17 245.6 52.77C245 52.36 243.04 52.02 241.25 52.02C238.31 52 238 52.28 238 54.95C238 57.3 238.97 58.65 242.68 61.48C245.25 63.44 247.84 64.89 248.43 64.69Z" fill="#6548E5"/>
</svg>
